:SAMPLES-PER-SECOND 30
:FULLY-SPECIFIED
:DEGREES
276
root  7.45575 18.1104 -59.706 -122.331 7.33478 -177.569
RightUpLeg  -63.1088 1.23155 10.2413
RightLeg  111.99 23.8593 -17.1727
RightFoot  -1.6502 0.265546 -2.64106
RightToes  -5.82073e-011 -3.18055e-015 -2.98177e-016
Spine  36.8084 -3.80267 8.7845
Spine1  -12.3152 -1.05593 -9.73823
HEad  -14.594 2.03277 -0.992509
LeftShoulder1  -3.88251e-019 9.70628e-020 -3.87848e-018
LeftArm  -3.62608 -19.3784 -62.2008
LeftForeArm  15.407 -1.53697 -7.30119
LeftHand  -12.0063 -11.2416 74.0693
RightShoulder  2.80882 8.07361 12.954
RightArm  3.02791 22.4917 77.9347
RightForeArm  10.7145 0.0727668 -6.12118
RightHand  -11.1 9.68435 -73.3013
LeftUpLeg  -62.008 6.62541 -12.3421
LeftLeg  114.491 -21.9025 16.4067
LeftFoot  -18.0078 -0.630167 -13.4835
LeftToes  -3.44176e-011 4.05998e-011 -5.21293e-012
277
root  7.56638 18.0922 -59.7233 -121.829 7.57045 -177.297
RightUpLeg  -63.3499 1.86626 10.688
RightLeg  111.503 24.0963 -17.9257
RightFoot  -1.84637 0.243582 -2.4592
RightToes  -5.82073e-011 -3.18055e-015 -2.98177e-016
Spine  36.9007 -3.89802 8.9652
Spine1  -13.4329 -1.17976 -10.1925
HEad  -14.2884 2.18903 -0.68375
LeftShoulder1  -3.88251e-019 9.70628e-020 -3.87848e-018
LeftArm  -3.96178 -18.2769 -61.451
LeftForeArm  15.8113 -1.54056 -7.26438
LeftHand  -12.0109 -11.3015 73.8867
RightShoulder  2.79707 8.04985 12.9116
RightArm  2.81133 22.3662 79.3833
RightForeArm  11.6125 -1.37382 -6.04539
RightHand  -11.2456 9.79019 -73.6387
LeftUpLeg  -62.3226 7.11283 -11.936
LeftLeg  114.768 -21.6665 15.8466
LeftFoot  -18.4198 -0.659331 -13.047
LeftToes  -3.44176e-011 4.05998e-011 -5.21293e-012
278
root  7.71253 18.1067 -59.7537 -121.594 7.72955 -176.991
RightUpLeg  -63.1611 2.5471 11.2706
RightLeg  110.843 24.2595 -18.6801
RightFoot  -1.98488 0.186188 -1.90032
RightToes  -5.82073e-011 -3.18055e-015 -2.98177e-016
Spine  36.9292 -3.94615 9.12297
Spine1  -13.8544 -1.19324 -10.5908
HEad  -14.4516 2.28663 -0.0239874
LeftShoulder1  -3.88251e-019 9.70628e-020 -3.87848e-018
LeftArm  -4.27289 -17.8725 -60.8257
LeftForeArm  16.343 -1.54677 -7.19088
LeftHand  -12.0128 -11.3351 73.7812
RightShoulder  2.81487 8.10072 12.9537
RightArm  3.13193 22.3052 80.0695
RightForeArm  11.4312 -1.77807 -5.65223
RightHand  -11.3665 9.91196 -73.7924
LeftUpLeg  -62.2682 7.78955 -11.175
LeftLeg  115.234 -21.189 14.7823
LeftFoot  -19.3496 -0.744166 -12.6094
LeftToes  -3.44176e-011 4.05998e-011 -5.21293e-012
279
root  7.89608 18.1624 -59.7927 -121.892 7.84988 -176.802
RightUpLeg  -62.3522 3.01409 11.9311
RightLeg  110.014 24.4158 -19.5703
RightFoot  -2.0803 0.122561 -1.26535
RightToes  -5.82073e-011 -3.18055e-015 -2.98177e-016
Spine  37.1386 -4.02609 9.14679
Spine1  -13.53 -1.18744 -10.8935
HEad  -14.9701 2.47263 0.751698
LeftShoulder1  -3.88251e-019 9.70628e-020 -3.87848e-018
LeftArm  -4.39985 -17.9815 -60.204
LeftForeArm  16.6861 -1.49929 -7.1213
LeftHand  -11.9367 -11.2793 73.6189
RightShoulder  2.80112 8.17453 12.7553
RightArm  3.59355 22.0735 80.2223
RightForeArm  10.2762 -0.98398 -5.29241
RightHand  -11.4055 9.93166 -73.9114
LeftUpLeg  -61.6452 8.54598 -10.2115
LeftLeg  115.789 -20.4188 13.1977
LeftFoot  -20.2793 -0.825836 -12.226
LeftToes  -3.44176e-011 4.05998e-011 -5.21293e-012
280
root  8.12107 18.2396 -59.8401 -122.635 8.11295 -176.873
RightUpLeg  -61.1475 3.29417 12.3863
RightLeg  109.193 24.5744 -20.4964
RightFoot  -2.09662 0.0884299 -0.922556
RightToes  -5.82073e-011 -3.18055e-015 -2.98177e-016
Spine  37.3517 -4.07771 8.82029
Spine1  -12.3062 -1.16786 -11.0639
HEad  -15.7087 2.68048 1.51593
LeftShoulder1  -3.88251e-019 9.70628e-020 -3.87848e-018
LeftArm  -4.22602 -18.3061 -59.366
LeftForeArm  16.7145 -1.67616 -7.12701
LeftHand  -11.8505 -11.2418 73.3457
RightShoulder  2.76501 8.22801 12.4417
RightArm  3.79343 21.6706 80.1209
RightForeArm  9.00524 0.831559 -5.42753
RightHand  -11.438 9.94534 -74.02
LeftUpLeg  -60.4399 9.19748 -9.39525
LeftLeg  115.984 -19.6425 11.7849
LeftFoot  -20.8235 -0.8918 -12.3125
LeftToes  -3.44176e-011 4.05998e-011 -5.21293e-012
281
root  8.3953 18.3243 -59.9056 -123.488 8.70425 -177.253
RightUpLeg  -60.0062 3.63399 12.374
RightLeg  108.51 24.6795 -21.2456
RightFoot  -1.84603 0.0742603 -0.778264
RightToes  -5.82073e-011 -3.18055e-015 -2.98177e-016
Spine  37.1686 -3.89981 7.87075
Spine1  -10.1506 -1.03719 -11.0243
HEad  -16.3756 2.7279 2.34145
LeftShoulder1  -3.88251e-019 9.70628e-020 -3.87848e-018
LeftArm  -3.86284 -18.6931 -58.3464
LeftForeArm  16.5973 -2.72439 -7.0712
LeftHand  -11.8749 -11.3444 73.1114
RightShoulder  2.74994 8.2507 12.3109
RightArm  3.91896 21.4727 79.8865
RightForeArm  8.08151 2.96058 -5.87981
RightHand  -11.5206 10.0426 -74.0714
LeftUpLeg  -58.9395 9.70955 -8.94146
LeftLeg  115.562 -19.074 10.9711
LeftFoot  -21.0927 -0.956007 -12.8057
LeftToes  -3.44176e-011 4.05998e-011 -5.21293e-012
282
root  8.71491 18.4181 -59.987 -124.123 9.46069 -177.837
RightUpLeg  -59.2694 4.05566 12.1658
RightLeg  107.806 24.7544 -21.9813
RightFoot  -1.23487 0.0456309 -0.481808
RightToes  -5.82073e-011 -3.18055e-015 -2.98177e-016
Spine  36.4329 -3.46355 6.42198
Spine1  -7.55929 -0.807691 -10.7231
HEad  -16.5891 2.57255 3.37745
LeftShoulder1  -3.88251e-019 9.70628e-020 -3.87848e-018
LeftArm  -3.52949 -19.2158 -57.4137
LeftForeArm  16.4265 -3.8584 -6.95946
LeftHand  -11.9503 -11.4801 73.0043
RightShoulder  2.72762 8.26737 12.1417
RightArm  4.22702 21.6573 79.7135
RightForeArm  7.21596 4.55774 -6.16752
RightHand  -11.5974 10.1105 -74.1983
LeftUpLeg  -57.8206 10.0633 -8.52184
LeftLeg  115.159 -18.3284 9.78534
LeftFoot  -20.7594 -0.913273 -12.7276
LeftToes  -3.44176e-011 4.05998e-011 -5.21293e-012
283
root  9.05611 18.5166 -60.0574 -124.416 9.85341 -178.557
RightUpLeg  -58.9799 4.21146 12.3219
RightLeg  106.915 24.8795 -23.0127
RightFoot  -0.491345 0.0134239 -0.147214
RightToes  -5.82073e-011 -3.18055e-015 -2.98177e-016
Spine  35.3632 -3.08051 5.07272
Spine1  -5.2175 -0.700983 -10.2145
HEad  -16.3578 2.35274 4.71642
LeftShoulder1  -3.88251e-019 9.70628e-020 -3.87848e-018
LeftArm  -3.41102 -20.1192 -56.7579
LeftForeArm  16.4566 -3.98839 -6.87676
LeftHand  -11.89 -11.4504 72.8246
RightShoulder  2.61642 8.2851 11.3908
RightArm  4.47941 21.8948 79.8189
RightForeArm  6.0831 5.42281 -6.26528
RightHand  -11.6228 10.0353 -74.5884
LeftUpLeg  -57.7798 9.91256 -7.61362
LeftLeg  115.801 -17.0848 7.32371
LeftFoot  -19.352 -0.686025 -11.5079
LeftToes  -3.44176e-011 4.05998e-011 -5.21293e-012
284
root  9.40074 18.6144 -60.1004 -124.586 9.5192 -179.701
RightUpLeg  -58.8776 3.73019 12.7846
RightLeg  106.103 24.9704 -23.9449
RightFoot  0.0796381 0.0184508 -0.195217
RightToes  -5.82073e-011 -3.18055e-015 -2.98177e-016
Spine  34.4151 -3.0843 4.11181
Spine1  -3.35433 -0.971405 -9.60629
HEad  -16.1771 2.2354 6.32425
LeftShoulder1  -3.88251e-019 9.70628e-020 -3.87848e-018
LeftArm  -3.57729 -21.5593 -56.3832
LeftForeArm  17.0962 -3.12678 -6.76295
LeftHand  -11.6727 -11.2974 72.324
RightShoulder  2.39434 8.2621 9.96513
RightArm  4.33254 21.9027 80.117
RightForeArm  4.7525 6.05597 -6.52478
RightHand  -11.6507 9.92387 -75.1215
LeftUpLeg  -58.9507 8.81568 -6.3152
LeftLeg  117.616 -16.0487 5.05963
LeftFoot  -18.1561 -0.480544 -9.73809
LeftToes  -3.44176e-011 4.05998e-011 -5.21293e-012
285
root  9.7637 18.7277 -60.1335 -124.968 8.70876 178.132
RightUpLeg  -58.724 2.45397 12.6169
RightLeg  105.92 24.7877 -23.7428
RightFoot  0.446917 0.0441409 -0.455765
RightToes  -5.82073e-011 -3.18055e-015 -2.98177e-016
Spine  33.8848 -3.45508 2.8957
Spine1  -1.74148 -1.7373 -8.91654
HEad  -16.408 2.30295 8.01648
LeftShoulder1  -3.88251e-019 9.70628e-020 -3.87848e-018
LeftArm  -3.7966 -23.3528 -56.2453
LeftForeArm  18.1732 -2.12643 -6.52102
LeftHand  -11.4688 -11.2283 71.5928
RightShoulder  2.11689 8.1566 8.26212
RightArm  3.83958 21.8308 80.3511
RightForeArm  3.41824 6.76837 -7.06818
RightHand  -11.731 9.93912 -75.4504
LeftUpLeg  -61.0881 6.84063 -5.54099
LeftLeg  119.732 -16.5423 5.46564
LeftFoot  -19.5038 -0.46271 -7.47489
LeftToes  -3.44176e-011 4.05998e-011 -5.21293e-012
286
root  10.1635 18.8826 -60.171 -125.658 7.95094 174.79
RightUpLeg  -58.4611 0.544113 11.1276
RightLeg  106.524 24.2018 -21.9683
RightFoot  0.767222 0.0305112 -0.341675
RightToes  -5.82073e-011 -3.18055e-015 -2.98177e-016
Spine  33.7954 -3.91343 0.708784
Spine1  -0.227224 -2.90225 -8.14771
HEad  -16.896 2.55677 9.5476
LeftShoulder1  -3.88251e-019 9.70628e-020 -3.87848e-018
LeftArm  -3.61196 -25.1737 -56.2967
LeftForeArm  18.9178 -1.60657 -6.24624
LeftHand  -11.3268 -11.23 70.9071
RightShoulder  1.83548 7.98941 6.57177
RightArm  3.25914 21.9254 80.4399
RightForeArm  2.0343 7.29303 -7.67221
RightHand  -11.7998 10.0333 -75.4376
LeftUpLeg  -64.0723 4.76752 -5.95333
LeftLeg  121.366 -18.7464 8.45962
LeftFoot  -24.0507 -0.582465 -5.31561
LeftToes  -3.44176e-011 4.05998e-011 -5.21293e-012
